<mxfile host="app.diagrams.net" agent="Mozilla/5.0 (Windows NT 10.0; Win64; x64) AppleWebKit/537.36 (KHTML, like Gecko) Chrome/132.0.0.0 Safari/537.36" version="26.0.10">
  <diagram name="PÃ¡gina-1" id="VvzbZGpaGb8Ik_uHKVzI">
    <mxGraphModel dx="794" dy="482" grid="1" gridSize="10" guides="1" tooltips="1" connect="1" arrows="1" fold="1" page="1" pageScale="1" pageWidth="827" pageHeight="1169" math="0" shadow="0">
      <root>
        <mxCell id="0" />
        <mxCell id="1" parent="0" />
        <mxCell id="FDU213r3gBX8MP10-FqB-1" value="INICIO" style="strokeWidth=2;html=1;shape=mxgraph.flowchart.start_1;whiteSpace=wrap;" vertex="1" parent="1">
          <mxGeometry x="260" y="20" width="100" height="60" as="geometry" />
        </mxCell>
        <mxCell id="FDU213r3gBX8MP10-FqB-2" value="FIM" style="strokeWidth=2;html=1;shape=mxgraph.flowchart.start_1;whiteSpace=wrap;" vertex="1" parent="1">
          <mxGeometry x="240" y="390" width="100" height="60" as="geometry" />
        </mxCell>
        <mxCell id="FDU213r3gBX8MP10-FqB-7" style="edgeStyle=orthogonalEdgeStyle;rounded=0;orthogonalLoop=1;jettySize=auto;html=1;exitX=0.5;exitY=1;exitDx=0;exitDy=0;entryX=0.5;entryY=0;entryDx=0;entryDy=0;" edge="1" parent="1" source="FDU213r3gBX8MP10-FqB-3" target="FDU213r3gBX8MP10-FqB-4">
          <mxGeometry relative="1" as="geometry" />
        </mxCell>
        <mxCell id="FDU213r3gBX8MP10-FqB-3" value="A, B, C" style="html=1;strokeWidth=2;shape=manualInput;whiteSpace=wrap;rounded=1;size=26;arcSize=11;" vertex="1" parent="1">
          <mxGeometry x="250" y="100" width="100" height="60" as="geometry" />
        </mxCell>
        <mxCell id="FDU213r3gBX8MP10-FqB-4" value="(a + c) &amp;gt; b&lt;div&gt;b &amp;gt;= (a + 2)&lt;/div&gt;&lt;div&gt;c = (b - a)&lt;/div&gt;&lt;div&gt;(b + a) &amp;lt;= c&lt;/div&gt;&lt;div&gt;(c + a) &amp;gt; b&lt;/div&gt;" style="rounded=1;whiteSpace=wrap;html=1;absoluteArcSize=1;arcSize=14;strokeWidth=2;" vertex="1" parent="1">
          <mxGeometry x="250" y="190" width="100" height="100" as="geometry" />
        </mxCell>
        <mxCell id="FDU213r3gBX8MP10-FqB-5" value="RESULTADO" style="strokeWidth=2;html=1;shape=mxgraph.flowchart.display;whiteSpace=wrap;" vertex="1" parent="1">
          <mxGeometry x="240" y="310" width="100" height="60" as="geometry" />
        </mxCell>
        <mxCell id="FDU213r3gBX8MP10-FqB-6" style="edgeStyle=orthogonalEdgeStyle;rounded=0;orthogonalLoop=1;jettySize=auto;html=1;exitX=0.5;exitY=1;exitDx=0;exitDy=0;exitPerimeter=0;entryX=0.616;entryY=0.22;entryDx=0;entryDy=0;entryPerimeter=0;" edge="1" parent="1" source="FDU213r3gBX8MP10-FqB-1" target="FDU213r3gBX8MP10-FqB-3">
          <mxGeometry relative="1" as="geometry" />
        </mxCell>
        <mxCell id="FDU213r3gBX8MP10-FqB-8" style="edgeStyle=orthogonalEdgeStyle;rounded=0;orthogonalLoop=1;jettySize=auto;html=1;exitX=0.5;exitY=1;exitDx=0;exitDy=0;entryX=0.58;entryY=-0.027;entryDx=0;entryDy=0;entryPerimeter=0;" edge="1" parent="1" source="FDU213r3gBX8MP10-FqB-4" target="FDU213r3gBX8MP10-FqB-5">
          <mxGeometry relative="1" as="geometry" />
        </mxCell>
        <mxCell id="FDU213r3gBX8MP10-FqB-9" style="edgeStyle=orthogonalEdgeStyle;rounded=0;orthogonalLoop=1;jettySize=auto;html=1;exitX=0.5;exitY=1;exitDx=0;exitDy=0;exitPerimeter=0;entryX=0.5;entryY=0;entryDx=0;entryDy=0;entryPerimeter=0;" edge="1" parent="1" source="FDU213r3gBX8MP10-FqB-5" target="FDU213r3gBX8MP10-FqB-2">
          <mxGeometry relative="1" as="geometry" />
        </mxCell>
      </root>
    </mxGraphModel>
  </diagram>
</mxfile>
